<?xml version="1.0" standalone="no"?>
<!DOCTYPE svg PUBLIC "-//W3C//DTD SVG 20010904//EN"
 "http://www.w3.org/TR/2001/REC-SVG-20010904/DTD/svg10.dtd">
<svg version="1.0" xmlns="http://www.w3.org/2000/svg"
 width="72.000000pt" height="72.000000pt" viewBox="0 0 72.000000 72.000000"
 preserveAspectRatio="xMidYMid meet">
<metadata>
Created by potrace 1.11, written by Peter Selinger 2001-2013
</metadata>
<g transform="translate(0.000000,72.000000) scale(0.100000,-0.100000)"
fill="#000000" stroke="none">
<path d="M705 700 c-3 -5 -1 -10 4 -10 6 0 11 5 11 10 0 6 -2 10 -4 10 -3 0
-8 -4 -11 -10z"/>
<path d="M265 677 c-64 -21 -97 -42 -141 -89 -62 -64 -87 -120 -92 -208 -7
-135 55 -244 178 -309 101 -54 210 -55 268 -2 18 15 50 33 71 40 45 13 88 58
121 126 35 73 34 181 -2 255 -40 81 -79 122 -149 160 -53 28 -76 34 -139 37
-44 2 -91 -3 -115 -10z m97 -122 c38 -54 51 -57 42 -9 -6 31 -4 35 11 32 11
-2 24 -20 33 -45 17 -54 32 -55 32 -3 0 72 49 44 55 -32 5 -57 5 -56 16 -30
12 32 43 25 47 -11 2 -16 -4 -50 -13 -75 l-17 -47 -72 0 c-39 0 -70 4 -68 8 1
4 2 11 2 17 0 5 11 12 25 16 14 4 24 11 22 18 -4 12 -16 12 -84 0 -35 -5 -43
-4 -43 9 0 9 9 19 20 22 11 3 20 13 20 21 0 17 -9 18 -46 4 -37 -15 -58 5 -29
27 15 12 17 16 6 20 -25 10 -51 43 -51 66 0 30 7 37 37 37 16 0 33 -13 55 -45z
m-202 -122 c-1 -24 -2 -26 -11 -10 -5 9 -7 22 -4 27 10 17 15 11 15 -17z m78
-52 c20 5 45 9 55 9 26 0 21 -29 -8 -42 -38 -17 -31 -32 13 -23 20 4 49 9 65
12 34 7 36 -12 5 -37 -31 -25 -17 -35 26 -20 52 17 80 -6 34 -27 l-23 -11 27
-10 c33 -14 52 -46 44 -78 -10 -37 -41 -29 -92 24 l-45 47 3 -37 c4 -54 -13
-51 -42 7 l-25 50 -3 -40 c-4 -54 -18 -66 -43 -36 -12 14 -19 39 -19 65 l0 41
-24 -29 -23 -30 -13 24 c-10 19 -10 34 1 79 7 31 13 62 12 68 0 9 4 9 19 -1
14 -10 29 -11 56 -5z m352 -103 c0 -10 -4 -18 -10 -18 -5 0 -10 15 -10 33 0
24 3 28 10 17 5 -8 10 -23 10 -32z"/>
</g>
</svg>
