<svg
   xmlns="http://www.w3.org/2000/svg"
   version="1.1"
   width="100"
   height="100"
   viewBox="0 0 100 100">
  <path
     d="m 58.230647,36.866184 c 0,5.984083 -4.887813,10.840459 -10.861212,10.840459 -5.973399,0 -10.861211,-4.856376 -10.861211,-10.840459 0,-6.026941 4.887812,-10.880637 10.861211,-10.880637 5.973399,0 10.861212,4.856375 10.861212,10.880637 z m -2.005395,9.206488 c 7.978792,0 9.232832,9.501137 9.232832,15.653975 0,3.517055 -2.213954,7.11447 -6.058962,7.11447 l -24.064723,0 c -3.842334,0 -6.058962,-3.600094 -6.058962,-7.11447 0,-5.901046 1.254039,-15.653975 9.024271,-15.653975 l 0.208561,0 c 2.756748,1.631292 5.556276,3.640273 8.858492,3.640273 3.302214,0 6.09907,-2.008981 8.858491,-3.640273 z M 84.800773,35.358111 c 0,0.712518 -0.625682,1.339319 -1.336929,1.339319 l -4.010787,0 0,5.357281 4.010787,0 c 0.711247,0 1.336929,0.626803 1.336929,1.339321 l 0,8.035921 c 0,0.712518 -0.625682,1.33932 -1.336929,1.33932 l -4.010787,0 0,5.357281 4.010787,0 c 0.711247,0 1.336929,0.626803 1.336929,1.339321 l 0,8.035922 c 0,0.712518 -0.625682,1.33932 -1.336929,1.33932 l -4.010787,0 0,9.375242 c 0,3.68313 -3.00809,6.6966 -6.684644,6.6966 l -50.803304,0 c -3.676554,0 -6.684645,-3.01347 -6.684645,-6.6966 l 0,-61.608732 c 0,-3.683132 3.008091,-6.6966016 6.684645,-6.6966016 l 50.803304,0 c 3.676554,0 6.684644,3.0134696 6.684644,6.6966016 l 0,9.375241 4.010787,0 c 0.711247,0 1.336929,0.626802 1.336929,1.33932 l 0,8.035923 z m -10.695431,42.858248 0,-61.608732 c 0,-0.712518 -0.625684,-1.339322 -1.336929,-1.339322 l -50.803304,0 c -0.711246,0 -1.336928,0.626804 -1.336928,1.339322 l 0,61.608732 c 0,0.712518 0.625682,1.339319 1.336928,1.339319 l 50.803304,0 c 0.711245,0 1.336929,-0.626801 1.336929,-1.339319 z"
   />
</svg>
