<svg
   xmlns="http://www.w3.org/2000/svg"
   version="1.1"
   width="100"
   height="100"
   viewBox="0 0 100 100">
  <path
     d="m 83.908804,26.991684 c 1.052899,1.760821 1.346419,4.063676 0.756687,6.316399 L 73.094376,77.66073 c -1.052899,4.160802 -4.755549,7.391063 -8.372027,7.391063 l -38.836079,0 c -4.29238,0 -8.87828,-3.966548 -10.434739,-9.057891 -0.673209,-2.202593 -0.673209,-4.35819 -0.08348,-6.216138 0.08348,-0.98067 0.253127,-1.958209 0.293519,-3.133134 0.04309,-0.783284 -0.336604,-1.41931 -0.253126,-2.008339 0.169648,-1.174926 1.052898,-2.008339 1.726107,-3.327389 1.26294,-2.446977 2.692836,-6.413525 3.156004,-8.95763 0.210041,-0.930541 -0.210041,-2.008339 0,-2.83862 0.210041,-0.930541 1.009813,-1.616697 1.429896,-2.497107 1.136377,-2.252724 2.609358,-6.607781 2.819399,-8.910635 0.08348,-1.027667 -0.336604,-2.155595 -0.08348,-2.938879 0.293519,-1.124794 1.219855,-1.616697 1.852671,-2.594236 1.009814,-1.616696 2.692836,-6.266266 2.945962,-8.860502 0.08348,-0.833414 -0.336604,-1.663694 -0.21004,-2.544105 0.169648,-0.930541 1.179461,-1.908078 1.85267,-3.036007 1.766501,-3.036007 2.103105,-9.7409141 7.448385,-7.980093 l -0.04309,0.147257 c 0.716301,-0.197387 1.429902,-0.4417716 2.146197,-0.4417716 l 32.020511,0 c 1.976541,0 3.745735,1.0276686 4.795941,2.7414926 1.093291,1.760821 1.346417,4.063675 0.756687,6.363396 L 66.494233,63.314108 c -1.976542,7.538321 -3.072526,9.205148 -8.415112,9.205148 l -36.563325,0 c -0.546646,0 -1.219855,0.147257 -1.599545,0.733153 -0.336604,0.585896 -0.37969,1.027669 -0.04308,2.105467 0.842858,2.83862 3.745735,3.427648 6.058881,3.427648 l 38.836079,0 c 1.556459,0 3.366044,-1.027667 3.829212,-2.791622 L 81.221354,27.674707 c 0.253127,-0.93054 0.253127,-1.908078 0.210041,-2.791622 0.966728,0.441772 1.852672,1.124795 2.482795,2.105467 z m -44.768396,0.09713 c -0.253127,0.880411 0.169649,1.566567 0.926336,1.566567 l 25.58194,0 c 0.716295,0 1.513374,-0.686156 1.766501,-1.566567 l 0.88325,-3.133134 C 68.551561,23.075266 68.128786,22.38911 67.3721,22.38911 l -25.581941,0 c -0.716294,0 -1.513374,0.686156 -1.766501,1.566567 z m -3.489915,12.532537 c -0.253127,0.88041 0.169648,1.566567 0.926335,1.566567 l 25.581941,0 c 0.716294,0 1.513373,-0.686157 1.7665,-1.566567 l 0.883251,-3.133134 c 0.253127,-0.880411 -0.169649,-1.566567 -0.926336,-1.566567 l -25.581941,0 c -0.716294,0 -1.513373,0.686156 -1.7665,1.566567 z"
  />
</svg>
