<svg
   xmlns="http://www.w3.org/2000/svg"
   version="1.1"
   width="100"
   height="100"
   viewBox="0 0 100 100">
  <path
     d="m 85.028488,52.983721 c 0,1.674292 -1.275343,3.060864 -2.815325,3.060864 l -9.853635,0 c 0,5.977867 -1.188067,10.474275 -2.947643,13.868774 l 9.149803,9.99678 c 1.100792,1.196798 1.100792,3.109838 0,4.303575 -0.526466,0.621355 -1.275343,0.909076 -1.979174,0.909076 -0.703831,0 -1.452706,-0.287721 -1.979172,-0.909076 l -8.710613,-9.421338 c 0,0 -5.762969,5.739118 -13.24047,5.739118 l 0,-42.852091 -5.630648,0 0,42.852091 c -7.961737,0 -13.76975,-6.314561 -13.76975,-6.314561 l -8.049012,9.898833 c -0.571511,0.670329 -1.320388,1.003963 -2.111494,1.003963 -0.658785,0 -1.320386,-0.238748 -1.891897,-0.765216 C 20.056436,83.20669 19.966346,81.29365 20.979863,80.001965 L 29.865026,69.145082 C 28.325043,65.845471 27.314342,61.58781 27.314342,56.041524 l -9.853635,0 c -1.539982,0 -2.815324,-1.386571 -2.815324,-3.060862 0,-1.674294 1.275342,-3.060865 2.815324,-3.060865 l 9.853635,0 0,-14.061607 -7.609821,-8.273515 c -1.100792,-1.196797 -1.100792,-3.109837 0,-4.303575 1.100791,-1.193735 2.860369,-1.196797 3.958345,0 l 7.609822,8.273515 37.128495,0 7.609821,-8.273515 c 1.100792,-1.196797 2.860369,-1.196797 3.958346,0 1.097976,1.196799 1.100791,3.109838 0,4.303575 l -7.609822,8.273515 0,14.061607 9.853635,0 c 1.539982,0 2.815325,1.386571 2.815325,3.060865 z m -21.114932,-27.547772 -28.153242,0 c 0,-8.466349 6.289435,-15.304318 14.076621,-15.304318 7.787187,0 14.076621,6.837969 14.076621,15.304318 z"
  />
</svg>
