<svg
   xmlns="http://www.w3.org/2000/svg"
   version="1.1"
   width="100"
   height="100"
   viewBox="0 0 100 100">
  <path
     d="m 20.343196,79.695447 12.145816,0 0,-12.05887 -12.145816,0 0,12.05887 z m 14.844886,0 13.49535,0 0,-12.05887 -13.49535,0 0,12.05887 z m -14.844886,-14.738618 12.145816,0 0,-13.398744 -12.145816,0 0,13.398744 z m 14.844886,0 13.49535,0 0,-13.398744 -13.49535,0 0,13.398744 z m -14.844886,-16.078493 12.145816,0 0,-12.058872 -12.145816,0 0,12.058872 z m 31.039307,30.817111 13.495351,0 0,-12.05887 -13.495351,0 0,12.05887 z m -16.194421,-30.817111 13.49535,0 0,-12.058872 -13.49535,0 0,12.058872 z m 32.388843,30.817111 12.145814,0 0,-12.05887 -12.145814,0 0,12.05887 z m -16.194422,-14.738618 13.495351,0 0,-13.398744 -13.495351,0 0,13.398744 z M 36.537616,28.78022 l 0,-12.05887 c 0,-0.712813 -0.631582,-1.339876 -1.349534,-1.339876 l -2.69907,0 c -0.717954,0 -1.349536,0.627063 -1.349536,1.339876 l 0,12.05887 c 0,0.712813 0.631582,1.339873 1.349536,1.339873 l 2.69907,0 c 0.717952,0 1.349534,-0.62706 1.349534,-1.339873 z m 31.039309,36.176609 12.145814,0 0,-13.398744 -12.145814,0 0,13.398744 z m -16.194422,-16.078493 13.495351,0 0,-12.058872 -13.495351,0 0,12.058872 z m 16.194422,0 12.145814,0 0,-12.058872 -12.145814,0 0,12.058872 z m 1.349533,-20.098116 0,-12.05887 c 0,-0.712813 -0.631583,-1.339876 -1.349533,-1.339876 l -2.699071,0 c -0.717954,0 -1.349537,0.627063 -1.349537,1.339876 l 0,12.05887 c 0,0.712813 0.631583,1.339873 1.349537,1.339873 l 2.699071,0 c 0.71795,0 1.349533,-0.62706 1.349533,-1.339873 z m 16.194422,-2.679749 0,53.594976 c 0,2.931646 -2.445359,5.359497 -5.398141,5.359497 l -59.379543,0 c -2.952783,0 -5.398141,-2.427851 -5.398141,-5.359497 l 0,-53.594976 c 0,-2.931645 2.445358,-5.359497 5.398141,-5.359497 l 5.39814,0 0,-4.019624 c 0,-3.684655 3.036453,-6.699372 6.747676,-6.699372 l 2.69907,0 c 3.711221,0 6.747675,3.014717 6.747675,6.699372 l 0,4.019624 16.194422,0 0,-4.019624 c 0,-3.684655 3.036453,-6.699372 6.747675,-6.699372 l 2.699071,0 c 3.71122,0 6.747674,3.014717 6.747674,6.699372 l 0,4.019624 5.39814,0 c 2.952782,0 5.398141,2.427852 5.398141,5.359497 z"
  />
</svg>
