<svg
   xmlns="http://www.w3.org/2000/svg"
   version="1.1"
   width="100"
   height="100"
   viewBox="0 0 100 100">
  <path
     d="m 77.592047,30.387097 c 0,-5.662451 -3.250118,-10.258064 -7.254728,-10.258064 l -2.418242,0 0,20.516129 2.418242,0 c 4.00461,0 7.254728,-4.595613 7.254728,-10.258065 z m -62.874305,41.032258 67.71079,0 c 0,7.532838 -4.345582,13.67742 -9.67297,13.67742 l -48.364851,0 c -5.327388,0 -9.672969,-6.144582 -9.672969,-13.67742 z M 84.846774,30.387097 c 0,11.328323 -6.500236,20.516129 -14.509455,20.516129 l -2.418242,0 0,1.709677 c 0,6.572 -3.815987,11.967743 -8.463849,11.967743 l -26.600668,0 c -4.647862,0 -8.463849,-5.395743 -8.463849,-11.967743 l 0,-39.32258 c 0,-1.870388 1.095465,-3.4193555 2.418244,-3.4193555 l 43.528364,0 c 8.011637,0 14.509455,9.1912255 14.509455,20.5161295 z"
   />
</svg>
