<svg
   xmlns="http://www.w3.org/2000/svg"
   version="1.1"
   width="100"
   height="100"
   viewBox="0 0 100 100">
  <path
     d="m 36.745956,47.386139 c -3.770208,0.126109 -7.178475,2.012377 -9.607649,5.366336 l -4.858348,0 c -3.62636,0 -7.032307,-2.012375 -7.032307,-6.664989 0,-3.396892 -0.109046,-14.800357 4.494087,-14.800357 0.761002,0 4.53121,3.563247 9.424359,3.563247 1.668173,0 3.2621,-0.335396 4.821226,-0.963258 -0.109046,0.923011 -0.18097,1.84602 -0.18097,2.766348 0,3.815465 1.051018,7.588 2.937281,10.732673 z m 38.825018,26.705574 c 0,6.791098 -3.879254,10.858782 -9.679573,10.858782 l -31.683665,0 c -5.800319,0 -9.679573,-4.067684 -9.679573,-10.858782 0,-9.474268 1.921066,-24.022406 12.542611,-24.022406 1.231988,0 5.728395,5.827841 12.978794,5.827841 7.2504,0 11.746807,-5.827841 12.978796,-5.827841 10.621544,0 12.54261,14.548138 12.54261,24.022406 z M 38.448929,20.554455 c 0,5.91102 -4.169268,10.732674 -9.28051,10.732674 -5.111242,0 -9.280512,-4.821654 -9.280512,-10.732674 0,-5.911019 4.16927,-10.7326728 9.280512,-10.7326728 5.111242,0 9.28051,4.8216538 9.28051,10.7326728 z m 25.521406,16.099011 c 0,8.889336 -6.236503,16.099009 -13.920767,16.099009 -7.684263,0 -13.920766,-7.212357 -13.920766,-16.099009 0,-8.886655 6.236503,-16.099011 13.920766,-16.099011 7.684264,0 13.920767,7.212356 13.920767,16.099011 z m 20.88115,9.43402 c 0,4.652614 -3.408267,6.664989 -7.032307,6.664989 l -4.858348,0 c -2.429173,-3.353959 -5.837442,-5.240227 -9.607649,-5.366336 1.883944,-3.144673 2.937282,-6.917208 2.937282,-10.732673 0,-0.923011 -0.07193,-1.84602 -0.180971,-2.766348 1.559127,0.627862 3.153055,0.963258 4.821226,0.963258 4.89315,0 8.663358,-3.563247 9.42436,-3.563247 4.603133,0 4.494087,11.403465 4.494087,14.800357 z M 80.211229,20.554455 c 0,5.91102 -4.169269,10.732674 -9.280511,10.732674 -5.111241,0 -9.28051,-4.821654 -9.28051,-10.732674 0,-5.911019 4.169269,-10.7326728 9.28051,-10.7326728 5.111242,0 9.280511,4.8216538 9.280511,10.7326728 z"
   />
</svg>
