<svg
   xmlns="http://www.w3.org/2000/svg"
   version="1.1"
   width="100"
   height="100"
   viewBox="0 0 100 100">
  <path
     d="m 64.894275,53.719901 11.894108,0 c -0.466681,0.635058 -0.781128,0.979179 -0.858492,1.076158 L 51.637562,84.124538 c -0.46668,0.585005 -1.093081,0.879072 -1.716984,0.879072 -0.623905,0 -1.247808,-0.294067 -1.716984,-0.879072 L 23.871335,54.69908 c -0.07736,-0.05006 -0.389317,-0.391046 -0.818562,-0.979179 l 14.389723,0 c 1.130514,0 2.143735,-0.979181 2.418252,-2.34628 l 2.730205,-13.736676 7.409484,32.603882 c 0.311953,1.320173 1.287739,2.249299 2.418253,2.249299 l 0,0 c 1.09308,0 2.066369,-0.929126 2.378322,-2.249299 l 5.692501,-23.706795 2.183663,5.474649 c 0.429247,1.026106 1.287739,1.71122 2.223595,1.71122 z M 84.859206,32.797355 c 0,5.621683 -1.949077,10.752211 -4.015447,14.665803 l -14.389723,0 -4.327399,-10.802265 c -0.429247,-1.123085 -1.442466,-1.808198 -2.418252,-1.711219 -1.05315,0.147034 -1.911642,0.97918 -2.183664,2.249299 L 52.493558,58.218497 44.849485,24.685489 C 44.537533,23.365316 43.561747,22.43619 42.3938,22.43619 c -1.130516,0 -2.106301,0.979181 -2.378324,2.346278 l -4.524552,22.68069 -16.493528,0 c -2.06637,-3.910464 -4.015447,-9.04412 -4.015447,-14.665803 0,-14.321682 6.980239,-22.8777777 18.639759,-22.8777777 6.823015,0 13.21928,6.7447687 16.29887,10.5582527 3.079591,-3.813484 9.475854,-10.5582527 16.29887,-10.5582527 11.65952,0 18.639758,8.5529667 18.639758,22.8777777 z"
  />
</svg>
