<svg
   xmlns="http://www.w3.org/2000/svg"
   version="1.1"
   width="100"
   height="100"
   viewBox="0 0 100 100">
  <path
     d="m 75.07599,53.126095 0,28.062782 c 0,2.046713 -1.259297,3.741705 -2.779906,3.741705 l -16.679428,0 0,-22.450227 -11.119619,0 0,22.450227 -16.67943,0 c -1.520607,0 -2.779904,-1.694992 -2.779904,-3.741705 l 0,-28.062782 c 0,-0.115993 0.04448,-0.235728 0.04448,-0.35172 L 50.056846,25.063313 75.031511,52.774375 c 0.04448,0.115992 0.04448,0.235727 0.04448,0.35172 z m 9.685188,-4.033558 -2.693728,4.32541 c -0.216833,0.351721 -0.564321,0.583706 -0.911808,0.643574 l -0.130656,0 c -0.347488,0 -0.650498,-0.115993 -0.911809,-0.407846 L 50.054066,19.918469 19.994955,53.653675 c -0.303009,0.291853 -0.650498,0.467713 -1.042464,0.407846 -0.347488,-0.05987 -0.694976,-0.291853 -0.911809,-0.643574 l -2.693728,-4.32541 c -0.478143,-0.759566 -0.391966,-1.986844 0.175134,-2.630418 l 31.229451,-35.01861 c 1.823618,-2.0467128 4.778656,-2.0467128 6.602274,0 l 10.599777,11.924811 0,-11.400973 c 0,-1.051419 0.6088,-1.870852 1.389953,-1.870852 l 8.339714,0 c 0.781154,0 1.389953,0.819433 1.389953,1.870852 l 0,23.853366 9.512834,10.641406 c 0.564321,0.643574 0.650498,1.870852 0.175134,2.630418 z"
  />
</svg>
