<!DOCTYPE svg PUBLIC "-//W3C//DTD SVG 20010904//EN" "http://www.w3.org/TR/2001/REC-SVG-20010904/DTD/svg10.dtd">
<svg version="1.0" xmlns="http://www.w3.org/2000/svg" width="106px" height="100px" viewBox="0 0 1060 1000" preserveAspectRatio="xMidYMid meet">
<g id="layer1" fill="#98c61f" stroke="none">
 <path d="M70 615 c-11 -14 -10 -19 8 -37 18 -18 23 -19 37 -8 9 7 15 23 13 34 -4 26 -40 33 -58 11z"/>
 <path d="M921 617 c-24 -29 17 -70 46 -46 20 17 12 53 -13 57 -11 2 -26 -3 -33 -11z"/>
 </g>
<g id="layer2" fill="#63a2d0" stroke="none">
 <path d="M513 823 c9 -2 23 -2 30 0 6 3 -1 5 -18 5 -16 0 -22 -2 -12 -5z"/>
 <path d="M310 626 c0 -2 9 -6 20 -9 11 -3 18 -1 14 4 -5 9 -34 13 -34 5z"/>
 <path d="M518 573 c7 -3 16 -2 19 1 4 3 -2 6 -13 5 -11 0 -14 -3 -6 -6z"/>
 <path d="M725 530 c-16 -17 -16 -20 -3 -15 9 4 19 13 22 21 7 19 2 18 -19 -6z"/>
 <path d="M628 513 c7 -3 16 -2 19 1 4 3 -2 6 -13 5 -11 0 -14 -3 -6 -6z"/>
 <path d="M453 499 c9 -5 17 -16 17 -24 0 -7 -8 -16 -17 -18 -17 -4 -17 -5 0 -6 10 0 20 6 23 14 7 17 -12 45 -30 45 -6 0 -3 -5 7 -11z"/>
 <path d="M518 503 c7 -3 16 -2 19 1 4 3 -2 6 -13 5 -11 0 -14 -3 -6 -6z"/>
 <path d="M504 459 c-3 -6 1 -17 10 -25 9 -8 11 -9 6 -2 -16 19 -12 26 18 31 l27 4 -27 2 c-15 0 -30 -4 -34 -10z"/>
 <path d="M317 453 c-2 -5 -1 -19 4 -33 7 -23 7 -23 8 8 1 31 -3 40 -12 25z"/>
 <path d="M762 410 c0 -14 2 -19 5 -12 2 6 2 18 0 25 -3 6 -5 1 -5 -13z"/>
 <path d="M488 403 c7 -3 16 -2 19 1 4 3 -2 6 -13 5 -11 0 -14 -3 -6 -6z"/>
 <path d="M528 393 c7 -3 16 -2 19 1 4 3 -2 6 -13 5 -11 0 -14 -3 -6 -6z"/>
 <path d="M629 332 c5 -34 6 -35 9 -8 2 16 0 32 -5 37 -5 5 -7 -7 -4 -29z"/>
 <path d="M740 360 c-9 -6 -10 -10 -3 -10 6 0 15 5 18 10 8 12 4 12 -15 0z"/>
 <path d="M544 328 c-4 -6 -3 -8 4 -4 5 3 13 0 15 -6 3 -8 6 -6 6 5 1 19 -14 23 -25 5z"/>
 <path d="M421 284 c0 -11 3 -14 6 -6 3 7 2 16 -1 19 -3 4 -6 -2 -5 -13z"/>
 <path d="M575 270 c-16 -7 -17 -9 -3 -9 9 -1 20 4 23 9 7 11 7 11 -20 0z"/>
 <path d="M754 248 l-19 -23 23 19 c21 18 27 26 19 26 -2 0 -12 -10 -23 -22z"/>
 <path d="M465 250 c-16 -7 -17 -9 -3 -9 9 -1 20 4 23 9 7 11 7 11 -20 0z"/>
 <path d="M522 70 c0 -14 2 -19 5 -12 2 6 2 18 0 25 -3 6 -5 1 -5 -13z"/>
 </g>
<g id="layer3" fill="#fbfdfe" stroke="none">
 <path d="M440 986 c0 -8 4 -17 9 -20 5 -4 7 3 4 14 -6 23 -13 26 -13 6z"/>
 <path d="M561 934 c0 -11 3 -14 6 -6 3 7 2 16 -1 19 -3 4 -6 -2 -5 -13z"/>
 <path d="M631 924 c0 -11 3 -14 6 -6 3 7 2 16 -1 19 -3 4 -6 -2 -5 -13z"/>
 <path d="M298 913 c7 -3 16 -2 19 1 4 3 -2 6 -13 5 -11 0 -14 -3 -6 -6z"/>
 <path d="M495 890 c3 -5 8 -10 11 -10 2 0 4 5 4 10 0 6 -5 10 -11 10 -5 0 -7 -4 -4 -10z"/>
 <path d="M240 826 c0 -2 8 -10 18 -17 15 -13 16 -12 3 4 -13 16 -21 21 -21 13z"/>
 <path d="M544 673 l-46 -48 7 44 c10 59 -11 52 -45 -15 l-25 -49 -3 40 c-4 52 -16 63 -42 40 -12 -11 -20 -31 -20 -52 0 -34 -8 -41 -27 -22 -7 7 -19 9 -29 5 -14 -5 -15 -14 -9 -49 3 -23 9 -55 12 -72 l5 -30 74 -1 c57 -1 74 2 74 12 0 8 -11 20 -25 26 -14 6 -25 15 -25 20 0 11 58 10 65 -2 8 -14 65 -13 65 1 0 6 -10 19 -22 29 -31 25 -17 35 26 20 52 -17 80 6 34 27 l-23 11 25 10 c36 14 52 36 48 69 -5 47 -40 42 -94 -14z"/>
 <path d="M730 564 c0 -14 4 -23 10 -19 6 3 10 15 10 26 0 10 -4 19 -10 19 -5 0 -10 -12 -10 -26z"/>
 <path d="M928 533 c7 -3 16 -2 19 1 4 3 -2 6 -13 5 -11 0 -14 -3 -6 -6z"/>
 <path d="M584 508 c-8 -13 16 -38 37 -38 11 0 19 -5 19 -11 0 -7 -21 -8 -65 -4 -68 8 -85 -3 -45 -27 33 -21 25 -41 -12 -32 -50 11 -60 10 -65 -4 -3 -8 4 -16 16 -19 20 -5 19 -6 -9 -33 -30 -28 -40 -72 -19 -85 21 -14 60 7 85 45 33 50 47 51 38 4 -6 -32 -4 -36 12 -32 13 2 24 19 34 51 17 54 30 52 30 -5 0 -68 47 -42 57 32 5 35 7 38 18 23 18 -24 45 -9 45 24 0 15 -8 48 -18 73 l-17 45 -68 1 c-37 0 -70 -3 -73 -8z"/>
 <path d="M80 500 c0 -5 14 -10 31 -10 17 0 28 4 24 10 -3 6 -17 10 -31 10 -13 0 -24 -4 -24 -10z"/>
 <path d="M948 503 c6 -2 18 -2 25 0 6 3 1 5 -13 5 -14 0 -19 -2 -12 -5z"/>
 <path d="M13 463 c9 -2 23 -2 30 0 6 3 -1 5 -18 5 -17 0 -22 -2 -12 -5z"/>
 <path d="M307 433 c-11 -10 -8 -43 3 -43 6 0 10 11 10 25 0 26 -2 29 -13 18z"/>
 <path d="M200 266 c0 -2 7 -7 16 -10 8 -3 12 -2 9 4 -6 10 -25 14 -25 6z"/>
 <path d="M659 133 c-13 -16 -12 -17 4 -4 16 13 21 21 13 21 -2 0 -10 -8 -17 -17z"/>
 <path d="M590 44 c0 -8 5 -12 10 -9 6 4 8 11 5 16 -9 14 -15 11 -15 -7z"/>
 <path d="M456 22 c-3 -5 1 -9 9 -9 8 0 12 4 9 9 -3 4 -7 8 -9 8 -2 0 -6 -4 -9 -8z"/>
 <path d="M640 10 c0 -5 5 -10 10 -10 6 0 10 5 10 10 0 6 -4 10 -10 10 -5 0 -10 -4 -10 -10z"/>
 </g>
<g id="layer4" fill="#3a3a39" stroke="none">
 <path d="M410 985 c0 -8 -4 -15 -10 -15 -5 0 -10 5 -10 10 0 6 -7 10 -15 10 -21 0 -19 -13 15 -80 30 -60 46 -73 56 -45 4 8 11 12 18 8 17 -12 139 -12 154 -1 8 8 12 6 12 -6 0 -8 11 -18 25 -22 l25 -6 -22 -17 -21 -18 22 -6 c17 -4 25 1 36 26 9 18 13 24 10 14 -3 -13 4 -22 26 -31 19 -8 27 -16 20 -20 -16 -10 -14 -26 4 -26 8 0 12 -6 9 -13 -2 -7 3 -21 12 -32 8 -11 13 -14 9 -7 -3 6 -1 12 4 12 6 0 11 6 11 13 1 6 19 26 40 42 39 30 51 55 27 55 -8 0 -24 -11 -37 -25 -31 -33 -38 -24 -10 15 31 44 11 64 -21 21 -29 -39 -48 -41 -20 -2 26 36 26 43 0 59 -18 11 -24 11 -40 -4 -20 -18 -20 -17 -10 9 18 46 -17 33 -38 -14 -17 -36 -20 -39 -26 -20 -7 22 8 58 22 53 4 -2 9 1 11 6 5 15 -29 24 -44 11 -8 -6 -15 -19 -15 -28 -1 -9 -4 -2 -8 14 -8 39 -49 49 -59 13 l-6 -23 -6 25 c-7 29 -50 42 -50 16 0 -9 8 -16 18 -16 16 -1 16 -1 0 -11 -10 -5 -18 -19 -18 -29 0 -13 -5 -18 -16 -13 -11 4 -12 9 -5 16 17 17 13 57 -5 64 -11 4 -22 -1 -30 -12 -13 -17 -14 -16 -14 13 0 22 -5 32 -15 32 -8 0 -15 -7 -15 -15z m53 -69 c-14 -19 -19 -21 -21 -9 -2 9 2 19 10 24 24 16 29 9 11 -15z m97 -16 c0 -5 -7 -10 -16 -10 -8 0 -12 5 -9 10 3 6 10 10 16 10 5 0 9 -4 9 -10z m192 -52 c-7 -7 -12 -8 -12 -2 0 14 12 26 19 19 2 -3 -1 -11 -7 -17z"/>
 <path d="M280 894 c0 -10 5 -14 15 -10 12 4 14 0 9 -22 -10 -39 -13 -40 -36 -9 -23 32 -43 36 -35 6 4 -16 2 -19 -10 -15 -20 8 -43 -11 -43 -36 0 -10 -4 -17 -9 -14 -4 3 -17 -1 -27 -9 -16 -11 -17 -16 -6 -27 11 -11 14 -10 22 2 8 12 10 11 10 -6 0 -11 6 -26 13 -33 6 -7 -11 -1 -40 13 -29 14 -54 26 -57 26 -10 0 -36 -32 -36 -46 0 -14 95 -74 118 -74 28 0 9 28 -34 48 -26 13 -44 25 -41 28 3 3 23 -4 46 -15 47 -25 61 -26 61 -7 0 8 7 16 15 20 8 3 15 13 15 22 0 10 -6 14 -14 11 -8 -3 -16 2 -19 13 -5 18 -3 18 19 3 26 -17 54 -12 54 11 0 7 11 17 25 20 14 4 25 11 25 16 0 6 9 10 20 10 11 0 20 7 20 15 0 8 -7 15 -16 15 -10 0 -14 6 -10 15 9 25 -4 45 -30 45 -15 0 -24 -6 -24 -16z m-19 -81 c13 -16 12 -17 -3 -4 -17 13 -22 21 -14 21 2 0 10 -8 17 -17z"/>
 <path d="M478 823 c7 -3 16 -2 19 1 4 3 -2 6 -13 5 -11 0 -14 -3 -6 -6z"/>
 <path d="M841 766 c-22 -24 -24 -56 -2 -56 5 0 12 -14 16 -31 9 -41 25 -45 76 -18 38 19 41 23 26 34 -9 6 -14 15 -11 18 3 3 3 10 -1 16 -4 7 -17 6 -38 -5 l-32 -16 23 22 c29 27 25 54 -8 58 -17 2 -34 -6 -49 -22z m39 -10 c0 -2 -8 -10 -17 -17 -16 -13 -17 -12 -4 4 13 16 21 21 21 13z m50 -60 c0 -2 -7 -7 -16 -10 -8 -3 -12 -2 -9 4 6 10 25 14 25 6z"/>
 <path d="M0 526 c0 -8 12 -17 28 -19 l27 -4 -27 -2 c-40 -2 -37 -31 2 -31 29 0 40 -13 21 -24 -14 -9 0 -56 18 -57 10 0 11 -2 3 -6 -16 -6 -15 -33 2 -73 13 -32 13 -32 32 -12 10 11 29 23 41 26 13 4 23 14 23 22 0 18 -9 18 -53 -1 -32 -13 -36 -13 -31 0 3 8 21 17 40 21 19 3 34 12 34 20 0 8 -4 14 -9 14 -5 0 -7 10 -4 21 4 15 0 27 -12 35 -11 8 -13 14 -7 14 7 0 12 5 12 10 0 6 -13 10 -29 10 -17 0 -33 5 -37 11 -5 8 4 10 30 7 30 -3 36 -1 36 14 0 16 -9 18 -70 18 -54 0 -70 -3 -70 -14z m110 -96 c-8 -5 -22 -9 -30 -9 -10 0 -8 3 5 9 27 12 43 12 25 0z m7 -36 c-3 -3 -12 -4 -19 -1 -8 3 -5 6 6 6 11 1 17 -2 13 -5z"/>
 <path d="M938 533 c-40 -4 -51 -26 -26 -51 9 -9 9 -12 0 -12 -7 0 -12 -13 -12 -30 0 -17 5 -30 12 -30 6 0 4 -6 -7 -14 -12 -8 -16 -20 -12 -35 3 -13 1 -21 -8 -21 -27 0 -27 -34 -1 -57 33 -28 34 -40 1 -19 -31 20 -49 21 -41 1 4 -10 -1 -15 -14 -15 -13 0 -22 -9 -26 -27 -6 -23 -1 -32 32 -60 21 -18 46 -33 55 -33 22 0 43 26 35 46 -7 17 -33 13 -29 -5 4 -14 -10 -14 -25 1 -9 9 -7 14 5 24 15 10 16 14 3 30 -14 17 -14 17 11 1 29 -19 32 -17 59 36 11 23 12 32 1 48 -11 19 -10 20 8 14 29 -9 28 19 -1 33 -22 11 -21 11 5 6 20 -5 27 -2 27 9 0 9 -10 18 -22 20 -21 4 -20 4 3 6 18 1 28 8 32 23 8 29 1 38 -31 39 -26 1 -26 1 6 10 17 5 32 16 32 24 0 9 10 15 25 15 16 0 25 6 25 15 0 15 -31 17 -122 8z m35 -30 c-7 -2 -21 -2 -30 0 -10 3 -4 5 12 5 17 0 24 -2 18 -5z m-15 -70 c-10 -2 -26 -2 -35 0 -10 3 -2 5 17 5 19 0 27 -2 18 -5z m-108 -223 c0 -5 -2 -10 -4 -10 -3 0 -8 5 -11 10 -3 6 -1 10 4 10 6 0 11 -4 11 -10z"/>
 <path d="M862 490 c0 -19 2 -27 5 -17 2 9 2 25 0 35 -3 9 -5 1 -5 -18z"/>
 <path d="M124 297 c-32 -28 -27 -57 8 -58 13 0 17 -3 11 -6 -7 -2 -13 -12 -13 -20 0 -9 6 -13 14 -10 10 4 13 1 9 -9 -3 -7 0 -14 6 -14 6 0 11 -7 11 -15 0 -26 24 -16 48 20 25 40 28 60 8 52 -11 -4 -13 -1 -9 10 5 13 2 15 -15 11 -18 -5 -19 -3 -10 12 9 14 9 22 -1 34 -18 22 -35 20 -67 -7z m46 -12 c0 -2 -10 -9 -22 -15 -22 -11 -22 -10 -4 4 21 17 26 19 26 11z"/>
 <path d="M275 250 c10 -11 20 -20 23 -20 3 0 -3 9 -13 20 -10 11 -20 20 -23 20 -3 0 3 -9 13 -20z"/>
 <path d="M238 132 l-37 -57 25 -13 c22 -12 28 -11 44 3 11 10 20 26 22 38 2 11 9 22 16 25 10 3 10 -2 0 -22 -10 -22 -9 -29 5 -43 13 -13 20 -14 29 -5 16 16 28 15 28 -3 0 -18 44 -37 74 -33 12 1 26 -1 33 -5 25 -16 43 4 43 49 0 40 -2 44 -25 44 -19 0 -26 -7 -31 -27 -10 -47 -14 -50 -9 -6 5 39 4 42 -25 48 -16 4 -34 4 -40 0 -5 -3 -10 -2 -10 4 0 17 -62 42 -76 30 -9 -8 -11 -5 -7 10 11 41 -22 21 -59 -37z m13 -45 c-10 -9 -11 -8 -5 6 3 10 9 15 12 12 3 -3 0 -11 -7 -18z m171 -18 c-4 -26 -6 -29 -14 -15 -10 18 -4 46 10 46 5 0 6 -14 4 -31z"/>
 <path d="M730 170 c-14 -11 -30 -20 -36 -20 -6 0 -17 -6 -24 -14 -6 -8 -18 -12 -26 -9 -9 3 -14 -1 -14 -13 0 -13 -3 -15 -8 -7 -5 8 -22 10 -50 6 -41 -5 -42 -7 -42 -42 0 -50 10 -62 48 -57 18 2 32 -1 32 -5 0 -5 7 -9 15 -9 8 0 15 7 15 15 0 8 5 15 10 15 6 0 10 -7 10 -15 0 -8 7 -15 15 -15 8 0 15 7 15 15 0 8 -4 15 -8 15 -4 0 -8 9 -8 20 0 13 4 16 10 10 17 -17 48 -11 53 9 3 11 11 17 18 15 7 -3 22 -1 33 5 24 13 20 36 -11 74 l-22 27 -25 -20z m35 -36 c9 -15 12 -23 6 -20 -11 7 -35 46 -28 46 3 0 12 -12 22 -26z m-55 -49 c0 -5 -5 -3 -10 5 -5 8 -10 20 -10 25 0 6 5 3 10 -5 5 -8 10 -19 10 -25z m-108 -20 c3 -14 1 -28 -3 -31 -5 -3 -9 9 -9 25 0 38 6 40 12 6z m42 0 c3 -8 1 -15 -4 -15 -6 0 -10 7 -10 15 0 8 2 15 4 15 2 0 6 -7 10 -15z"/>
 </g>
<g id="layer5" fill="#0f70b7" stroke="none">
 <path d="M373 790 c-105 -52 -180 -159 -190 -270 -21 -227 201 -414 420 -356 71 19 109 41 164 98 64 66 86 118 91 212 4 70 1 88 -21 138 -32 72 -97 142 -162 176 -41 21 -67 26 -145 29 -89 3 -99 2 -157 -27z m267 -91 c13 -24 -6 -61 -42 -80 -19 -10 -19 -12 -5 -21 10 -5 17 -16 17 -24 0 -13 -9 -15 -52 -9 l-53 6 28 -21 c15 -12 27 -25 27 -30 0 -17 -38 -20 -73 -5 -42 17 -67 19 -67 5 0 -5 8 -10 19 -10 24 0 45 -25 37 -46 -5 -12 -13 -14 -38 -8 -18 5 -49 8 -68 9 -32 0 -35 -3 -40 -34 -3 -19 -11 -36 -19 -39 -11 -4 -12 2 -6 24 9 38 10 80 0 126 -4 20 -5 48 -1 62 7 28 33 35 42 11 10 -26 24 -16 24 16 0 40 16 69 40 69 15 0 19 -8 22 -42 l3 -43 22 48 c27 59 59 67 49 12 -4 -19 -4 -35 -1 -35 3 0 21 18 41 40 41 45 77 52 94 19z m110 -126 c0 -16 -4 -34 -9 -42 -6 -10 -3 -33 10 -67 29 -78 7 -143 -33 -94 l-18 22 0 -37 c0 -46 -15 -75 -39 -75 -21 0 -31 18 -31 58 -1 21 -5 16 -19 -23 -22 -63 -51 -74 -51 -19 l0 37 -41 -47 c-45 -51 -58 -55 -84 -26 -22 25 -10 60 31 86 26 18 26 18 4 26 -39 14 -17 33 36 30 l49 -2 -29 23 c-45 36 -9 65 45 36 11 -5 32 -9 47 -7 l27 3 -30 15 c-16 8 -31 24 -33 34 -4 17 1 18 58 12 73 -8 90 1 90 50 0 19 5 34 10 34 6 0 10 -12 10 -27z"/>
 </g>

</svg>