<svg
   xmlns="http://www.w3.org/2000/svg"
   version="1.1"
   width="100"
   height="100"
   viewBox="0 0 100 100">
  <path
     d="m 85.14082,14.169107 0,50.613946 c 0,6.371572 -9.663756,8.676675 -14.655377,8.676675 -4.991622,0 -14.655377,-2.305103 -14.655377,-8.676675 0,-6.371574 9.663755,-8.676677 14.655377,-8.676677 3.021939,0 6.046809,0.540846 8.793226,1.761365 l 0,-24.268663 -35.172905,10.70991 0,32.040073 c 0,6.371574 -9.663757,8.676677 -14.655378,8.676677 -4.991621,0 -14.655377,-2.305103 -14.655377,-8.676677 0,-6.371571 9.663756,-8.676676 14.655377,-8.676676 3.021939,0 6.046809,0.540847 8.793226,1.761366 l 0,-43.698635 c 0,-1.897299 1.283811,-3.569006 3.112803,-4.156128 l 38.103981,-11.5689 c 0.413282,-0.1359357 0.823632,-0.1822111 1.283811,-0.1822111 2.42693,0 4.396613,1.9435751 4.396613,4.3383391 z"
  />
</svg>
