<svg
   xmlns="http://www.w3.org/2000/svg"
   version="1.1"
   width="100"
   height="100"
   viewBox="0 0 100 100">
  <path
     d="m 84.903509,71.565031 c 0,1.468536 -1.378274,2.684709 -3.042546,2.684709 l -21.96414,0 c 0.143004,2.684707 0.523318,5.495595 0.523318,8.223258 0,1.385309 -1.283953,2.518255 -2.899547,2.518255 l -15.21273,0 c -1.615591,0 -2.899545,-1.132946 -2.899545,-2.518255 0,-2.727663 0.380317,-5.538551 0.523318,-8.223258 l -21.96414,0 c -1.664272,0 -3.042546,-1.216173 -3.042546,-2.684709 0,-0.714131 0.331638,-1.385309 0.903637,-1.887348 l 19.110231,-16.905602 -10.886231,0 c -1.664272,0 -3.042545,-1.216173 -3.042545,-2.684708 0,-0.714132 0.331638,-1.385309 0.903636,-1.887349 l 19.110232,-16.905601 -9.364957,0 c -1.664272,0 -3.042545,-1.216173 -3.042545,-2.684709 0,-0.714132 0.331636,-1.385309 0.903636,-1.887348 L 47.775321,10.614123 c 0.568956,-0.502041 1.332634,-0.7973592 2.138909,-0.7973592 0.806274,0 1.569954,0.2926332 2.138909,0.7973592 l 18.255276,16.108243 c 0.568956,0.502039 0.903637,1.175902 0.903637,1.887348 0,1.468536 -1.378274,2.684709 -3.042546,2.684709 l -9.364957,0 19.110232,16.905601 c 0.568956,0.50204 0.903635,1.175903 0.903635,1.887349 0,1.468535 -1.378272,2.684708 -3.042546,2.684708 l -10.886229,0 19.110232,16.905602 c 0.568956,0.502039 0.903636,1.175902 0.903636,1.887348 z"
   />
</svg>
