<svg
   xmlns="http://www.w3.org/2000/svg"
   version="1.1"
   width="100"
   height="100"
   viewBox="0 0 100 100">
  <path
     d="m 39.101809,47.502783 c -7.250645,0 -13.131262,-8.402286 -13.131262,-18.755102 0,-10.352816 5.882805,-18.7551022 13.131262,-18.7551022 7.248457,0 13.131262,8.4022862 13.131262,18.7551022 0,10.352816 -5.882805,18.755102 -13.131262,18.755102 z m 32.828154,6.2517 12.03699,0 c 0.582152,0 1.094271,0.73145 1.094271,1.562926 l 0,9.377551 c 0,0.831476 -0.512119,1.562925 -1.094271,1.562925 l -12.03699,0 0,17.192177 c 0,0.831476 -0.512119,1.562925 -1.094272,1.562925 l -6.565631,0 c -0.582152,0 -1.094271,-0.731449 -1.094271,-1.562925 l 0,-17.192177 -12.03699,0 c -0.582153,0 -1.094272,-0.731449 -1.094272,-1.562925 l 0,-9.377551 c 0,-0.831476 0.512119,-1.562926 1.094272,-1.562926 l 12.03699,0 0,-17.192176 c 0,-0.831477 0.512119,-1.562925 1.094271,-1.562925 l 6.565631,0 c 0.582153,0 1.094272,0.731448 1.094272,1.562925 l 0,17.192176 z M 46.761711,64.69496 c 0,3.41968 1.982821,6.251701 4.377088,6.251701 l 8.754174,0 0,11.625037 c -1.676424,1.756728 -3.794934,2.441289 -5.847788,2.441289 l -29.886752,0 c -5.471359,0 -9.130604,-4.688776 -9.130604,-12.650316 0,-11.037378 1.812114,-27.985738 11.831267,-27.985738 0.547136,0 0.923566,0.340717 1.332823,0.831476 3.35066,3.663496 6.600647,5.95787 10.907702,5.95787 4.307053,0 7.557041,-2.294374 10.9077,-5.95787 0.409258,-0.487633 0.785688,-0.831476 1.332824,-0.831476 2.906386,0 5.471359,1.562924 7.421351,4.688775 l -7.624886,0 c -2.394267,0 -4.377087,2.832021 -4.377087,6.251701 l 0,9.377551 z"
   />
</svg>
